{"title":"Sultan 2016 Hindi 480p DvDScr V2 x264 AC3 5.1 (Sync) - Hon3y","uid":15293091,"size":2344389197,"categoryP":"video","categoryS":"movies","magnet":"?xt=urn:btih:f9b1dbdfc83abd4eb4d5e23faf30daf3ab03c2c6&amp;dn=Sultan+2016+Hindi+480p+DvDScr+V2+x264+AC3+5.1+%28Sync%29+-+Hon3y&amp;tr=udp%3A%2F%2Ftracker.leechers-paradise.org%3A6969&amp;tr=udp%3A%2F%2Fzer0day.ch%3A1337&amp;tr=udp%3A%2F%2Fopen.demonii.com%3A1337&amp;tr=udp%3A%2F%2Ftracker.coppersurfer.tk%3A6969&amp;tr=udp%3A%2F%2Fexodus.desync.com%3A6969","seeders":5,"leechers":0,"uploader":"CDRiPD","files":2,"time":1468438507,"description":"Sultan 2016 Hindi 480p DvDScr V2 x264 AC3 5.1 (Audio Sync) - Hon3y\r\n\r\n\r\nFormat                                   : Matroska\r\nFormat version                           : Version 4 / Version 2\r\nFile size                                : 2.18 GiB\r\nDuration                                 : 2h 49mn\r\nOverall bit rate                         : 1 846 Kbps\r\n\r\nVideo\r\nFormat                                   : AVC\r\nFormat/Info                              : Advanced Video Codec\r\nFormat profile                           :   \r\nFormat settings, CABAC                   : Yes\r\nFormat settings, ReFrames                : 8 frames\r\nCodec ID                                 : V_MPEG4/ISO/AVC\r\nDuration                                 : 2h 49mn\r\nBit rate                                 : 1 396 Kbps\r\nWidth                                    : 854 pixels\r\nHeight                                   : 364 pixels\r\nDisplay aspect ratio                     : 2.35:1\r\nFrame rate mode                          : Constant\r\nFrame rate                               : 23.976 fps\r\nColor space                              : YUV\r\nChroma subsampling                       : 4:2:0\r\nBit depth                                : 8 bits\r\nScan type                                : Progressive\r\nBits/(Pixel*Frame)                       : 0.187\r\nStream size                              : 1.61 GiB (74%)\r\nWriting library                          : x264\r\n\r\nAudio\r\nFormat                                   : AC-3\r\nFormat/Info                              : Audio Coding 3\r\nMode extension                           : CM (complete main)\r\nFormat settings, Endianness              : Big\r\nCodec ID                                 : A_AC3\r\nDuration                                 : 2h 49mn\r\nBit rate mode                            : Constant\r\nBit rate                                 : 448 Kbps\r\nChannel(s)                               : 6 channels\r\nChannel positions                        : Front: L C R, Side: L R, LFE\r\nSampling rate                            : 48.0 KHz\r\nBit depth                                : 16 bits\r\nCompression mode                         : Lossy\r\nStream size                              : 543 MiB (24%)\r\nLanguage                                 : Hindi\r\n\r\n\r\nScreen Shots:\r\n \nhttps://ititli.com/X3y \nhttps://ititli.com/X33 \nhttps://ititli.com/X3E \nhttps://ititli.com/X3Q \nhttps://ititli.com/X3S \nhttps://ititli.com/X3Z \nhttps://ititli.com/X3c \nhttps://ititli.com/X3i \nhttps://ititli.com/X3p \nhttps://ititli.com/X3D \nhttps://ititli.com/X3a \nhttps://ititli.com/X3b","torrent":{"xt":"urn:btih:f9b1dbdfc83abd4eb4d5e23faf30daf3ab03c2c6","amp;dn":"Sultan+2016+Hindi+480p+DvDScr+V2+x264+AC3+5.1+%28Sync%29+-+Hon3y","amp;tr":["udp%3A%2F%2Ftracker.leechers-paradise.org%3A6969","udp%3A%2F%2Fzer0day.ch%3A1337","udp%3A%2F%2Fopen.demonii.com%3A1337","udp%3A%2F%2Ftracker.coppersurfer.tk%3A6969","udp%3A%2F%2Fexodus.desync.com%3A6969"],"infoHash":"f9b1dbdfc83abd4eb4d5e23faf30daf3ab03c2c6","infoHashBuffer":{"type":"Buffer","data":[249,177,219,223,200,58,189,78,180,213,226,63,175,48,218,243,171,3,194,198]},"announce":[],"urlList":[]}}